<svg viewBox="0 0 50 34" fill="none" xmlns="http://www.w3.org/2000/svg">
  <path d="M13.3694 24.0919C13.3694 27.7838 10.3765 30.7766 6.68468 30.7766C2.99284 30.7766 0 27.7838 0 24.0919C0 20.4001 2.99284 17.4072 6.68468 17.4072C10.3765 17.4072 13.3694 20.4001 13.3694 24.0919Z" fill="#ff8000"/>
  <path d="M9.28202 12.4207C7.37017 9.10924 8.3115 4.98652 11.3845 3.2123C14.4576 1.43809 18.4986 2.68424 20.4105 5.99567L29.2438 21.2954C31.1556 24.6069 30.2143 28.7296 27.1413 30.5038C24.0683 32.278 20.0272 31.0319 18.1154 27.7204L9.28202 12.4207Z" fill="#0000ff"/>
  <path d="M26.4695 12.4207C24.5577 9.10924 25.499 4.98652 28.572 3.2123C31.6451 1.43809 35.6861 2.68424 37.598 5.99567L46.4313 21.2954C48.3431 24.6069 47.4018 28.7296 44.3288 30.5038C41.2558 32.278 37.2147 31.0319 35.3029 27.7204L26.4695 12.4207Z" fill="#ff8000"/>
</svg>
